<svg width="145" height="170" viewBox="0 0 145 170" fill="none" xmlns="http://www.w3.org/2000/svg">
<path d="M142.499 62.2837C141.974 63.8687 140.267 66.0236 136.858 68.4419C133.35 70.931 128.392 73.4475 122.17 75.6949C109.739 80.1853 92.5423 83.5 72.5 83.5C52.4746 83.5 34.6385 79.9421 21.874 75.3226C15.4804 73.0088 10.4539 70.4627 7.0789 68.0326C5.38924 66.816 4.19219 65.6845 3.43942 64.6951C2.67486 63.6902 2.5 63.0095 2.5 62.6358C2.5 43.606 10.147 28.6599 22.6099 18.4244C35.1232 8.1476 52.6497 2.5 72.5 2.5C92.3503 2.5 109.877 8.1476 122.39 18.4244C134.776 28.5966 142.405 43.4215 142.499 62.2837Z" fill="#BFCCFB" stroke="black" stroke-width="5"/>
<path d="M142.5 60.5C142.5 62.9836 141.075 65.7004 137.704 68.5035C134.348 71.2944 129.342 73.9197 122.936 76.1728C110.146 80.6712 92.3148 83.5 72.5 83.5C52.6852 83.5 34.8536 80.6712 22.0643 76.1728C15.6582 73.9197 10.652 71.2944 7.29587 68.5035C3.92495 65.7004 2.5 62.9836 2.5 60.5C2.5 58.0164 3.92495 55.2996 7.29587 52.4965C10.652 49.7056 15.6582 47.0803 22.0643 44.8272C34.8536 40.3288 52.6852 37.5 72.5 37.5C92.3148 37.5 110.146 40.3288 122.936 44.8272C129.342 47.0803 134.348 49.7056 137.704 52.4965C141.075 55.2996 142.5 58.0164 142.5 60.5Z" fill="white" stroke="black" stroke-width="5"/>
<path d="M2 63L74.2816 128L143 63" stroke="black" stroke-width="4"/>
<path d="M32 41L74.2074 127L109 41" stroke="black" stroke-width="4"/>
<g clip-path="url(#clip0_1_91)">
<path d="M74 98L40.5 116L40 147.5L74 168L108 147V116L74 98Z" fill="#BFCCFB" stroke="black" stroke-width="2"/>
<path d="M38.467 149.967L72.8981 169.712C73.569 170.096 74.4292 170.096 75.0999 169.712L109.532 149.975C110.116 149.64 110.47 149.063 110.469 148.443L110.461 115.692C110.46 115.06 110.093 114.473 109.49 114.142L75.0653 95.2689C74.7383 95.0895 74.3687 94.9998 73.9991 94.9998C73.6295 94.9998 73.2597 95.0892 72.9331 95.2689L38.5065 114.135C37.9034 114.466 37.5355 115.052 37.5353 115.685L37.5306 148.436C37.5304 149.055 37.8837 149.632 38.467 149.967ZM73.9993 165.338L61.3804 158.129L73.9993 150.921L86.6178 158.129L73.9993 165.338ZM105.773 117.017L105.773 128.648L93.4073 121.945L93.4053 110.234L105.773 117.017ZM93.4053 126.774L105.773 133.556L105.773 145.333L93.4053 138.267L93.4053 126.774ZM103.119 148.746L91.0608 155.635L79.0022 148.746L91.0608 141.858L103.119 148.746ZM88.7174 138.267L76.3492 145.333L76.3492 133.556L88.7174 126.774L88.7174 138.267V138.267ZM88.7113 119.442L80.4907 114.746L88.7113 110.237L88.7113 119.442ZM76.3433 100.882L86.5777 106.495L76.3433 112.106L76.3433 100.882ZM74.0011 115.965L86.6486 123.017L74.0011 130.037L61.3537 122.991L74.0011 115.965ZM71.655 100.882L71.655 112.096L61.4284 106.491L71.655 100.882ZM59.2869 110.229L67.5156 114.741L59.2869 119.442L59.2869 110.229ZM59.2808 126.765L71.6485 133.548L71.6485 145.324L59.2808 138.258L59.2808 126.765ZM68.9952 148.738L56.9365 155.627L44.8779 148.738L56.9365 141.849L68.9952 148.738ZM42.2244 117.009L54.5925 110.226L54.5925 121.718L42.2244 128.627L42.2244 117.009ZM42.2244 133.548L54.5925 126.765L54.5925 138.259L42.2244 145.325L42.2244 133.548Z" fill="black"/>
</g>
<defs>
<clipPath id="clip0_1_91">
<rect width="84" height="75" fill="white" transform="translate(116 170) rotate(180)"/>
</clipPath>
</defs>
</svg>
